<?xml version="1.0" encoding="utf-8"?>
<!-- Generator: Adobe Illustrator 15.0.2, SVG Export Plug-In . SVG Version: 6.00 Build 0)  -->
<!DOCTYPE svg PUBLIC "-//W3C//DTD SVG 1.1//EN" "http://www.w3.org/Graphics/SVG/1.1/DTD/svg11.dtd">
<svg version="1.1" id="Layer_1" xmlns="http://www.w3.org/2000/svg" xmlns:xlink="http://www.w3.org/1999/xlink" x="0px" y="0px"
	 width="273px" height="122px" viewBox="289.949 242.644 273 122" enable-background="new 289.949 242.644 273 122"
	 xml:space="preserve">
<g id="logo-co-part">
	<path fill="#005272" d="M504.364,280.229c-6.641,0-12.479,2.07-16.76,5.91c-4.62,4.13-7.421,10.31-7.44,18.19v0.001
		c0,7.423-6.369,14.3-14.199,14.3c-3,0-5.78-0.93-8.08-2.528c-3.7-2.562-6.12-6.841-6.12-11.67c0-7.83,6.37-14.2,14.2-14.2
		c2.33,0,4.54,0.54,6.58,1.61c2.449,1.29,5.47,0.35,6.75-2.1c0.739-1.4,0.739-2.99,0.159-4.33h-0.01c-0.431-1-1.21-1.87-2.25-2.42
		c-3.439-1.81-7.32-2.76-11.229-2.76c-13.341,0-24.2,10.86-24.2,24.2c0,7.72,3.641,14.62,9.301,19.05
		c4.109,3.229,9.279,5.148,14.899,5.148c7.819,0,14.769-3.737,19.199-9.5c3.12-4.057,4.976-8.764,4.996-14.702h0.004v-0.1
		c0.021-2.93,1.03-5.91,2.841-8.37c2.449-3.34,6.399-5.73,11.359-5.73c7.83,0,14.2,6.37,14.2,14.2c0,7.831-6.37,14.2-14.2,14.2
		c-4.641,0-8.78-2.239-11.37-5.699c-1.08,3.431-2.79,6.57-4.989,9.301c4.3,3.979,10.05,6.398,16.359,6.398
		c13.34,0,24.2-10.858,24.2-24.2C528.564,291.088,517.704,280.229,504.364,280.229"/>
</g>
<g id="light_x5F_blue">
	<g id="logo-halo">
		<path fill="#00A4E4" d="M504.443,357.776c-12.16,0-23.594-3.942-33.062-11.399c-2.168-1.709-2.542-4.854-0.834-7.022
			c1.709-2.169,4.852-2.543,7.021-0.834c7.688,6.058,16.979,9.257,26.874,9.257c24.06,0,43.632-19.572,43.632-43.632
			c0-24.058-19.572-43.632-43.632-43.632c-9.798,0-19.052,3.17-26.764,9.168c-2.18,1.697-5.319,1.303-7.016-0.877
			c-1.696-2.179-1.303-5.32,0.877-7.015c9.481-7.377,20.86-11.276,32.901-11.276c29.571,0,53.632,24.061,53.632,53.632
			C558.075,333.716,534.015,357.776,504.443,357.776"/>
	</g>
	<g id="logo-indi">
		<g>
			<path fill="#00A4E4" d="M423.195,285.286c0-2.818,2.155-5.057,4.976-5.057c2.817,0,5.056,2.239,5.056,5.057v38.301
				c0,2.818-2.238,4.976-5.056,4.976c-2.737,0-4.976-2.155-4.976-4.976V285.286z"/>
		</g>
		<g>
			<path fill="#00A4E4" d="M295.471,285.345c0-2.818,2.154-5.057,4.975-5.057c2.818,0,5.057,2.239,5.057,5.057v38.301
				c0,2.818-2.238,4.975-5.057,4.975c-2.737,0-4.975-2.154-4.975-4.975V285.345z"/>
		</g>
		<g>
			<path fill="#00A4E4" d="M413.658,270.166c0-2.818-2.237-5.057-5.056-5.057c-2.82,0-4.975,2.239-4.975,5.057v14.687
				c-3.986-2.889-8.881-4.599-14.17-4.599c-13.344,0-24.199,10.856-24.199,24.2s10.855,24.2,24.199,24.2
				c13.345,0,24.2-10.855,24.2-24.2c0-0.113-0.007-0.223-0.008-0.335c0-0.029,0.008-0.056,0.008-0.085V270.166z M389.458,318.654
				c-7.829,0-14.199-6.369-14.199-14.2c0-7.83,6.37-14.2,14.199-14.2c7.621,0,13.843,6.039,14.17,13.582v0.198
				c0,0.071,0.018,0.136,0.02,0.206c0.001,0.072,0.011,0.142,0.011,0.214C403.658,312.285,397.288,318.654,389.458,318.654"/>
		</g>
		<g>
			<path fill="#00A4E4" d="M356.661,299.546c-0.76-10.58-9.42-18.96-20.109-19.3c-0.01-0.01-0.03-0.01-0.05,0
				c-0.2-0.02-0.41-0.02-0.631-0.02c-0.199,0-0.399,0-0.59,0.02c-10.739,0.29-19.46,8.71-20.189,19.35
				c-0.03,0.23-0.061,0.486-0.05,0.726v23.274c0,2.819,2.239,4.97,4.979,4.97c2.82,0,5.05-2.148,5.05-4.97v-23.3
				c0-0.04,0-0.07-0.01-0.11c0.45-5.57,5.13-9.96,10.81-9.96c5.71,0,10.41,4.42,10.82,10.03c0,0.01,0.01,0.02,0,0.04v23.3
				c0,2.819,2.23,4.97,4.97,4.97c2.82,0,5.061-2.148,5.061-4.97v-23.3C356.721,300.036,356.701,299.786,356.661,299.546"/>
		</g>
	</g>
</g>
</svg>
